<mxfile host="app.diagrams.net" modified="2021-12-05T21:01:21.685Z" agent="5.0 (Windows NT 10.0; Win64; x64) AppleWebKit/537.36 (KHTML, like Gecko) Chrome/93.0.4577.82 Safari/537.36" etag="oXaPS2xa8vR0qTZTClMG" version="14.8.4" type="github">
  <diagram id="oLSkKjBn8GzL2LZilRrz" name="Page-1">
    <mxGraphModel dx="1852" dy="728" grid="1" gridSize="10" guides="1" tooltips="1" connect="1" arrows="1" fold="1" page="1" pageScale="1" pageWidth="827" pageHeight="1169" math="0" shadow="0">
      <root>
        <mxCell id="0" />
        <mxCell id="1" parent="0" />
        <mxCell id="tz4kha4yQ7z8eIW2ydcT-3" style="edgeStyle=orthogonalEdgeStyle;rounded=0;orthogonalLoop=1;jettySize=auto;html=1;" parent="1" source="tz4kha4yQ7z8eIW2ydcT-1" target="tz4kha4yQ7z8eIW2ydcT-2" edge="1">
          <mxGeometry relative="1" as="geometry" />
        </mxCell>
        <mxCell id="tz4kha4yQ7z8eIW2ydcT-1" value="main" style="rounded=1;whiteSpace=wrap;html=1;" parent="1" vertex="1">
          <mxGeometry x="225" y="80" width="120" height="60" as="geometry" />
        </mxCell>
        <mxCell id="tz4kha4yQ7z8eIW2ydcT-9" value="" style="edgeStyle=orthogonalEdgeStyle;rounded=0;orthogonalLoop=1;jettySize=auto;html=1;" parent="1" source="tz4kha4yQ7z8eIW2ydcT-2" target="tz4kha4yQ7z8eIW2ydcT-8" edge="1">
          <mxGeometry relative="1" as="geometry" />
        </mxCell>
        <mxCell id="tz4kha4yQ7z8eIW2ydcT-2" value="&lt;font style=&quot;font-size: 12px&quot;&gt;do some init&lt;br&gt;&lt;/font&gt;&lt;div style=&quot;font-family: &amp;#34;droid sans mono&amp;#34; , monospace , monospace , &amp;#34;droid sans fallback&amp;#34; ; line-height: 19px&quot;&gt;&lt;font style=&quot;font-size: 12px&quot;&gt;process_options&lt;/font&gt;&lt;/div&gt;" style="rounded=0;whiteSpace=wrap;html=1;" parent="1" vertex="1">
          <mxGeometry x="207.5" y="190" width="155" height="60" as="geometry" />
        </mxCell>
        <mxCell id="tz4kha4yQ7z8eIW2ydcT-10" style="edgeStyle=orthogonalEdgeStyle;rounded=0;orthogonalLoop=1;jettySize=auto;html=1;exitX=0;exitY=0.5;exitDx=0;exitDy=0;entryX=0;entryY=0.5;entryDx=0;entryDy=0;" parent="1" source="tz4kha4yQ7z8eIW2ydcT-12" target="tz4kha4yQ7z8eIW2ydcT-8" edge="1">
          <mxGeometry relative="1" as="geometry">
            <mxPoint x="60" y="460" as="targetPoint" />
            <Array as="points">
              <mxPoint x="-100" y="535" />
              <mxPoint x="-100" y="360" />
            </Array>
          </mxGeometry>
        </mxCell>
        <mxCell id="tz4kha4yQ7z8eIW2ydcT-13" style="edgeStyle=orthogonalEdgeStyle;rounded=0;orthogonalLoop=1;jettySize=auto;html=1;entryX=0.5;entryY=0;entryDx=0;entryDy=0;" parent="1" source="tz4kha4yQ7z8eIW2ydcT-8" target="tz4kha4yQ7z8eIW2ydcT-17" edge="1">
          <mxGeometry relative="1" as="geometry">
            <mxPoint x="400" y="680" as="targetPoint" />
            <Array as="points">
              <mxPoint x="480" y="360" />
              <mxPoint x="480" y="690" />
              <mxPoint x="285" y="690" />
            </Array>
          </mxGeometry>
        </mxCell>
        <mxCell id="tz4kha4yQ7z8eIW2ydcT-14" style="edgeStyle=orthogonalEdgeStyle;rounded=0;orthogonalLoop=1;jettySize=auto;html=1;entryX=0.5;entryY=0;entryDx=0;entryDy=0;" parent="1" source="tz4kha4yQ7z8eIW2ydcT-8" target="tz4kha4yQ7z8eIW2ydcT-12" edge="1">
          <mxGeometry relative="1" as="geometry" />
        </mxCell>
        <mxCell id="tz4kha4yQ7z8eIW2ydcT-8" value="i &amp;lt; num_thread" style="rhombus;whiteSpace=wrap;html=1;rounded=0;" parent="1" vertex="1">
          <mxGeometry x="210" y="320" width="150" height="80" as="geometry" />
        </mxCell>
        <mxCell id="tz4kha4yQ7z8eIW2ydcT-11" value="true" style="text;html=1;strokeColor=none;fillColor=none;align=center;verticalAlign=middle;whiteSpace=wrap;rounded=0;" parent="1" vertex="1">
          <mxGeometry x="210" y="400" width="60" height="30" as="geometry" />
        </mxCell>
        <mxCell id="tz4kha4yQ7z8eIW2ydcT-24" style="edgeStyle=orthogonalEdgeStyle;rounded=0;orthogonalLoop=1;jettySize=auto;html=1;entryX=0;entryY=0.5;entryDx=0;entryDy=0;dashed=1;" parent="1" source="tz4kha4yQ7z8eIW2ydcT-12" target="tz4kha4yQ7z8eIW2ydcT-25" edge="1">
          <mxGeometry relative="1" as="geometry">
            <mxPoint x="810" y="160" as="targetPoint" />
          </mxGeometry>
        </mxCell>
        <mxCell id="tz4kha4yQ7z8eIW2ydcT-12" value="&lt;font style=&quot;font-size: 12px&quot;&gt;testmutex[i] 上锁&lt;br&gt;设置参数receiver参数&amp;nbsp;&lt;br&gt;&lt;/font&gt;&lt;div style=&quot;font-family: &amp;#34;droid sans mono&amp;#34; , monospace , monospace , &amp;#34;droid sans fallback&amp;#34; ; line-height: 19px&quot;&gt;&lt;font style=&quot;font-size: 12px&quot;&gt;pthread_create(receiver[i].threadid, semathread,...)&lt;/font&gt;&lt;/div&gt;&lt;div style=&quot;font-family: &amp;#34;droid sans mono&amp;#34; , monospace , monospace , &amp;#34;droid sans fallback&amp;#34; ; line-height: 19px&quot;&gt;&lt;font style=&quot;font-size: 12px&quot;&gt;&lt;span style=&quot;font-family: &amp;#34;helvetica&amp;#34;&quot;&gt;设置参数sender参数&amp;nbsp;&lt;/span&gt;&lt;br&gt;&lt;/font&gt;&lt;/div&gt;&lt;div style=&quot;font-family: &amp;#34;droid sans mono&amp;#34; , monospace , monospace , &amp;#34;droid sans fallback&amp;#34; ; line-height: 19px&quot;&gt;&lt;div style=&quot;font-family: &amp;#34;droid sans mono&amp;#34; , monospace , monospace , &amp;#34;droid sans fallback&amp;#34; ; line-height: 19px&quot;&gt;&lt;font style=&quot;font-size: 12px&quot;&gt;pthread_create(sender[i].threadid, semathread,...)&lt;/font&gt;&lt;/div&gt;&lt;div&gt;&lt;br&gt;&lt;/div&gt;&lt;/div&gt;" style="rounded=0;whiteSpace=wrap;html=1;" parent="1" vertex="1">
          <mxGeometry x="-47.5" y="450" width="410" height="210" as="geometry" />
        </mxCell>
        <mxCell id="tz4kha4yQ7z8eIW2ydcT-15" value="false" style="text;html=1;strokeColor=none;fillColor=none;align=center;verticalAlign=middle;whiteSpace=wrap;rounded=0;" parent="1" vertex="1">
          <mxGeometry x="370" y="320" width="60" height="30" as="geometry" />
        </mxCell>
        <mxCell id="tz4kha4yQ7z8eIW2ydcT-19" value="" style="edgeStyle=orthogonalEdgeStyle;rounded=0;orthogonalLoop=1;jettySize=auto;html=1;" parent="1" source="tz4kha4yQ7z8eIW2ydcT-17" target="tz4kha4yQ7z8eIW2ydcT-18" edge="1">
          <mxGeometry relative="1" as="geometry" />
        </mxCell>
        <mxCell id="tz4kha4yQ7z8eIW2ydcT-22" style="edgeStyle=orthogonalEdgeStyle;rounded=0;orthogonalLoop=1;jettySize=auto;html=1;" parent="1" source="tz4kha4yQ7z8eIW2ydcT-17" target="tz4kha4yQ7z8eIW2ydcT-23" edge="1">
          <mxGeometry relative="1" as="geometry">
            <mxPoint x="660" y="1140" as="targetPoint" />
            <Array as="points">
              <mxPoint x="690" y="760" />
              <mxPoint x="690" y="1150" />
              <mxPoint x="285" y="1150" />
            </Array>
          </mxGeometry>
        </mxCell>
        <mxCell id="tz4kha4yQ7z8eIW2ydcT-17" value="&lt;div style=&quot;font-family: &amp;#34;droid sans mono&amp;#34; , &amp;#34;monospace&amp;#34; , monospace , &amp;#34;droid sans fallback&amp;#34; ; font-size: 14px ; line-height: 19px&quot;&gt;!shutdown&lt;/div&gt;" style="rhombus;whiteSpace=wrap;html=1;" parent="1" vertex="1">
          <mxGeometry x="197.5" y="720" width="175" height="80" as="geometry" />
        </mxCell>
        <mxCell id="tz4kha4yQ7z8eIW2ydcT-21" style="edgeStyle=orthogonalEdgeStyle;rounded=0;orthogonalLoop=1;jettySize=auto;html=1;entryX=0;entryY=0.5;entryDx=0;entryDy=0;" parent="1" source="tz4kha4yQ7z8eIW2ydcT-18" target="tz4kha4yQ7z8eIW2ydcT-17" edge="1">
          <mxGeometry relative="1" as="geometry">
            <Array as="points">
              <mxPoint x="285" y="1090" />
              <mxPoint x="-57" y="1090" />
              <mxPoint x="-57" y="760" />
            </Array>
          </mxGeometry>
        </mxCell>
        <mxCell id="tz4kha4yQ7z8eIW2ydcT-18" value="&lt;div style=&quot;font-family: &amp;#34;droid sans mono&amp;#34; , &amp;#34;monospace&amp;#34; , monospace , &amp;#34;droid sans fallback&amp;#34; ; font-weight: normal ; font-size: 14px ; line-height: 19px&quot;&gt;&lt;div&gt;for (i = 0; i &amp;lt; num_threads; i++) {&lt;/div&gt;&lt;div&gt;            // 打印 统计信息&lt;/div&gt;&lt;div&gt;&lt;span style=&quot;font-family: &amp;#34;droid sans mono&amp;#34; , monospace , monospace , &amp;#34;droid sans fallback&amp;#34;&quot;&gt;}&lt;/span&gt;&lt;br&gt;&lt;/div&gt;&lt;/div&gt;" style="whiteSpace=wrap;html=1;" parent="1" vertex="1">
          <mxGeometry x="61.25" y="890" width="447.5" height="150" as="geometry" />
        </mxCell>
        <mxCell id="tz4kha4yQ7z8eIW2ydcT-23" value="Done" style="rounded=1;whiteSpace=wrap;html=1;" parent="1" vertex="1">
          <mxGeometry x="225" y="1200" width="120" height="60" as="geometry" />
        </mxCell>
        <mxCell id="tz4kha4yQ7z8eIW2ydcT-28" value="" style="edgeStyle=orthogonalEdgeStyle;rounded=0;orthogonalLoop=1;jettySize=auto;html=1;" parent="1" source="tz4kha4yQ7z8eIW2ydcT-25" target="tz4kha4yQ7z8eIW2ydcT-27" edge="1">
          <mxGeometry relative="1" as="geometry" />
        </mxCell>
        <mxCell id="tz4kha4yQ7z8eIW2ydcT-25" value="&lt;span&gt;&lt;p style=&quot;line-height: 100% ; margin-bottom: 0pt ; margin-top: 0pt&quot;&gt;&lt;span class=&quot;ql-author-40603024&quot;&gt;&lt;font style=&quot;font-size: 12px&quot;&gt;semathread&lt;/font&gt;&lt;/span&gt;&lt;/p&gt;&lt;/span&gt;" style="rounded=0;whiteSpace=wrap;html=1;" parent="1" vertex="1">
          <mxGeometry x="827" y="100" width="120" height="60" as="geometry" />
        </mxCell>
        <mxCell id="tz4kha4yQ7z8eIW2ydcT-35" value="" style="edgeStyle=orthogonalEdgeStyle;rounded=0;orthogonalLoop=1;jettySize=auto;html=1;" parent="1" source="tz4kha4yQ7z8eIW2ydcT-27" target="tz4kha4yQ7z8eIW2ydcT-34" edge="1">
          <mxGeometry relative="1" as="geometry" />
        </mxCell>
        <mxCell id="tz4kha4yQ7z8eIW2ydcT-27" value="参数设置" style="whiteSpace=wrap;html=1;rounded=0;" parent="1" vertex="1">
          <mxGeometry x="765.5" y="240" width="243" height="80" as="geometry" />
        </mxCell>
        <mxCell id="tz4kha4yQ7z8eIW2ydcT-40" style="edgeStyle=orthogonalEdgeStyle;rounded=0;orthogonalLoop=1;jettySize=auto;html=1;entryX=0;entryY=0.5;entryDx=0;entryDy=0;" parent="1" source="tz4kha4yQ7z8eIW2ydcT-34" target="tz4kha4yQ7z8eIW2ydcT-41" edge="1">
          <mxGeometry relative="1" as="geometry">
            <mxPoint x="740" y="1040" as="targetPoint" />
            <Array as="points">
              <mxPoint x="730" y="440" />
              <mxPoint x="730" y="1340" />
            </Array>
          </mxGeometry>
        </mxCell>
        <mxCell id="V-USIv7HnG8WvUq4QJfr-15" value="" style="edgeStyle=orthogonalEdgeStyle;rounded=0;orthogonalLoop=1;jettySize=auto;html=1;" parent="1" source="tz4kha4yQ7z8eIW2ydcT-34" target="V-USIv7HnG8WvUq4QJfr-14" edge="1">
          <mxGeometry relative="1" as="geometry" />
        </mxCell>
        <mxCell id="tz4kha4yQ7z8eIW2ydcT-34" value="！shutdown" style="rhombus;whiteSpace=wrap;html=1;rounded=0;" parent="1" vertex="1">
          <mxGeometry x="790.5" y="400" width="193" height="80" as="geometry" />
        </mxCell>
        <mxCell id="tz4kha4yQ7z8eIW2ydcT-41" value="结束" style="rounded=1;whiteSpace=wrap;html=1;" parent="1" vertex="1">
          <mxGeometry x="840" y="1310" width="120" height="60" as="geometry" />
        </mxCell>
        <mxCell id="42cWuqqMUiZ870ovFTQU-1" value="启动线程" style="text;html=1;align=center;verticalAlign=middle;resizable=0;points=[];autosize=1;strokeColor=none;fillColor=none;" parent="1" vertex="1">
          <mxGeometry x="560" y="310" width="60" height="20" as="geometry" />
        </mxCell>
        <mxCell id="V-USIv7HnG8WvUq4QJfr-17" value="" style="edgeStyle=orthogonalEdgeStyle;rounded=0;orthogonalLoop=1;jettySize=auto;html=1;" parent="1" source="V-USIv7HnG8WvUq4QJfr-14" target="V-USIv7HnG8WvUq4QJfr-16" edge="1">
          <mxGeometry relative="1" as="geometry" />
        </mxCell>
        <mxCell id="V-USIv7HnG8WvUq4QJfr-24" value="" style="edgeStyle=orthogonalEdgeStyle;rounded=0;orthogonalLoop=1;jettySize=auto;html=1;" parent="1" source="V-USIv7HnG8WvUq4QJfr-14" target="V-USIv7HnG8WvUq4QJfr-23" edge="1">
          <mxGeometry relative="1" as="geometry" />
        </mxCell>
        <mxCell id="V-USIv7HnG8WvUq4QJfr-14" value="sender?" style="rhombus;whiteSpace=wrap;html=1;rounded=0;" parent="1" vertex="1">
          <mxGeometry x="790.5" y="560" width="193" height="80" as="geometry" />
        </mxCell>
        <mxCell id="V-USIv7HnG8WvUq4QJfr-20" value="" style="edgeStyle=orthogonalEdgeStyle;rounded=0;orthogonalLoop=1;jettySize=auto;html=1;" parent="1" source="V-USIv7HnG8WvUq4QJfr-16" target="V-USIv7HnG8WvUq4QJfr-19" edge="1">
          <mxGeometry relative="1" as="geometry" />
        </mxCell>
        <mxCell id="V-USIv7HnG8WvUq4QJfr-16" value="lock syncmutex" style="whiteSpace=wrap;html=1;rounded=0;" parent="1" vertex="1">
          <mxGeometry x="1100" y="570" width="120" height="60" as="geometry" />
        </mxCell>
        <mxCell id="V-USIv7HnG8WvUq4QJfr-18" value="yes" style="text;html=1;align=center;verticalAlign=middle;resizable=0;points=[];autosize=1;strokeColor=none;" parent="1" vertex="1">
          <mxGeometry x="1025" y="570" width="30" height="20" as="geometry" />
        </mxCell>
        <mxCell id="V-USIv7HnG8WvUq4QJfr-22" value="" style="edgeStyle=orthogonalEdgeStyle;rounded=0;orthogonalLoop=1;jettySize=auto;html=1;" parent="1" source="V-USIv7HnG8WvUq4QJfr-19" target="V-USIv7HnG8WvUq4QJfr-21" edge="1">
          <mxGeometry relative="1" as="geometry" />
        </mxCell>
        <mxCell id="V-USIv7HnG8WvUq4QJfr-19" value="gettimeofday(unlock)" style="whiteSpace=wrap;html=1;rounded=0;" parent="1" vertex="1">
          <mxGeometry x="1100" y="710" width="120" height="60" as="geometry" />
        </mxCell>
        <mxCell id="V-USIv7HnG8WvUq4QJfr-33" style="edgeStyle=orthogonalEdgeStyle;rounded=0;orthogonalLoop=1;jettySize=auto;html=1;" parent="1" source="V-USIv7HnG8WvUq4QJfr-21" edge="1">
          <mxGeometry relative="1" as="geometry">
            <mxPoint x="980" y="439.9999999999998" as="targetPoint" />
            <Array as="points">
              <mxPoint x="1340" y="880" />
              <mxPoint x="1340" y="440" />
            </Array>
          </mxGeometry>
        </mxCell>
        <mxCell id="V-USIv7HnG8WvUq4QJfr-21" value="unlock testmutex" style="whiteSpace=wrap;html=1;rounded=0;" parent="1" vertex="1">
          <mxGeometry x="1100" y="850" width="120" height="60" as="geometry" />
        </mxCell>
        <mxCell id="V-USIv7HnG8WvUq4QJfr-26" value="" style="edgeStyle=orthogonalEdgeStyle;rounded=0;orthogonalLoop=1;jettySize=auto;html=1;" parent="1" source="V-USIv7HnG8WvUq4QJfr-23" target="V-USIv7HnG8WvUq4QJfr-25" edge="1">
          <mxGeometry relative="1" as="geometry" />
        </mxCell>
        <mxCell id="V-USIv7HnG8WvUq4QJfr-23" value="lock testmutex" style="whiteSpace=wrap;html=1;rounded=0;" parent="1" vertex="1">
          <mxGeometry x="827" y="730" width="120" height="60" as="geometry" />
        </mxCell>
        <mxCell id="V-USIv7HnG8WvUq4QJfr-28" value="" style="edgeStyle=orthogonalEdgeStyle;rounded=0;orthogonalLoop=1;jettySize=auto;html=1;" parent="1" source="V-USIv7HnG8WvUq4QJfr-25" target="V-USIv7HnG8WvUq4QJfr-27" edge="1">
          <mxGeometry relative="1" as="geometry" />
        </mxCell>
        <mxCell id="V-USIv7HnG8WvUq4QJfr-25" value="gettimeofday(receiver)" style="whiteSpace=wrap;html=1;rounded=0;" parent="1" vertex="1">
          <mxGeometry x="827" y="870" width="120" height="60" as="geometry" />
        </mxCell>
        <mxCell id="V-USIv7HnG8WvUq4QJfr-31" value="" style="edgeStyle=orthogonalEdgeStyle;rounded=0;orthogonalLoop=1;jettySize=auto;html=1;" parent="1" source="V-USIv7HnG8WvUq4QJfr-27" target="V-USIv7HnG8WvUq4QJfr-30" edge="1">
          <mxGeometry relative="1" as="geometry" />
        </mxCell>
        <mxCell id="V-USIv7HnG8WvUq4QJfr-27" value="计算 diff&lt;br&gt;更新 统计信息" style="whiteSpace=wrap;html=1;rounded=0;" parent="1" vertex="1">
          <mxGeometry x="827" y="1010" width="120" height="60" as="geometry" />
        </mxCell>
        <mxCell id="V-USIv7HnG8WvUq4QJfr-29" value="no" style="text;html=1;align=center;verticalAlign=middle;resizable=0;points=[];autosize=1;strokeColor=none;" parent="1" vertex="1">
          <mxGeometry x="885" y="670" width="30" height="20" as="geometry" />
        </mxCell>
        <mxCell id="V-USIv7HnG8WvUq4QJfr-32" style="edgeStyle=orthogonalEdgeStyle;rounded=0;orthogonalLoop=1;jettySize=auto;html=1;entryX=1;entryY=0.5;entryDx=0;entryDy=0;" parent="1" source="V-USIv7HnG8WvUq4QJfr-30" target="tz4kha4yQ7z8eIW2ydcT-34" edge="1">
          <mxGeometry relative="1" as="geometry">
            <Array as="points">
              <mxPoint x="1340" y="1180" />
              <mxPoint x="1340" y="440" />
            </Array>
          </mxGeometry>
        </mxCell>
        <mxCell id="V-USIv7HnG8WvUq4QJfr-30" value="unlock testmutex" style="whiteSpace=wrap;html=1;rounded=0;" parent="1" vertex="1">
          <mxGeometry x="827" y="1150" width="120" height="60" as="geometry" />
        </mxCell>
      </root>
    </mxGraphModel>
  </diagram>
</mxfile>
